HIERARCHY
ROOT SpineBase
{
  OFFSET 0.000000 0.000000 0.000000
  CHANNELS 6 Xposition Yposition Zposition Zrotation Xrotation Yrotation
  JOINT SpineMid
  {
    OFFSET 0.000000 28.101491 0.000000
    CHANNELS 3 Zrotation Xrotation Yrotation
    JOINT SpineShoulder
    {
      OFFSET 0.025226 20.841333 -0.728899
      CHANNELS 3 Zrotation Xrotation Yrotation
      JOINT Neck
      {
        OFFSET -0.021717 6.873779 -0.544642
        CHANNELS 3 Zrotation Xrotation Yrotation
        JOINT Head
        {
          OFFSET -3.665232 13.686445 -0.197038
          CHANNELS 3 Zrotation Xrotation Yrotation
          End Site
          {
            OFFSET 0 0 0
          }
        }
      }
      JOINT ShoulderLeft
      {
        OFFSET -17.418009 -4.877644 7.491533
        CHANNELS 3 Zrotation Xrotation Yrotation
        JOINT ElbowLeft
        {
          OFFSET -0.316110 -24.768702 0.302351
          CHANNELS 3 Zrotation Xrotation Yrotation
          JOINT WristLeft
          {
            OFFSET 0.562389 -20.599515 -8.465503
            CHANNELS 3 Zrotation Xrotation Yrotation
            JOINT HandLeft
            {
              OFFSET 1.833086 -4.112819 -2.595968
              CHANNELS 3 Zrotation Xrotation Yrotation
              JOINT HandTipLeft
              {
                OFFSET 1.109942 -6.290477 -0.836010
                CHANNELS 3 Zrotation Xrotation Yrotation
                End Site
                {
                  OFFSET 0 0 0
                }
              }
              JOINT ThumbLeft
              {
                OFFSET 3.093761 -1.671777 -2.925477
                CHANNELS 3 Zrotation Xrotation Yrotation
                End Site
                {
                  OFFSET 0 0 0
                }
              }
            }
          }
        }
      }
      JOINT ShoulderRight
      {
        OFFSET 15.023885 -2.634141 -7.034299
        CHANNELS 3 Zrotation Xrotation Yrotation
        JOINT ElbowRight
        {
          OFFSET 5.542469 -21.960591 -1.619674
          CHANNELS 3 Zrotation Xrotation Yrotation
          JOINT WristRight
          {
            OFFSET -4.138430 -19.739323 -5.062220
            CHANNELS 3 Zrotation Xrotation Yrotation
            JOINT HandRight
            {
              OFFSET -3.056612 -6.497971 -1.145592
              CHANNELS 3 Zrotation Xrotation Yrotation
              JOINT HandTipRight
              {
                OFFSET -1.577513 -6.785207 0.063025
                CHANNELS 3 Zrotation Xrotation Yrotation
                End Site
                {
                  OFFSET 0 0 0
                }
              }
              JOINT ThumbRight
              {
                OFFSET 2.084721 -1.418508 -2.743372
                CHANNELS 3 Zrotation Xrotation Yrotation
                End Site
                {
                  OFFSET 0 0 0
                }
              }
            }
          }
        }
      }
    }
  }
  JOINT HipLeft
  {
    OFFSET -6.368383 0.022120 -0.587318
    CHANNELS 3 Zrotation Xrotation Yrotation
    JOINT KneeLeft
    {
      OFFSET 2.472961 -33.070004 2.787236
      CHANNELS 3 Zrotation Xrotation Yrotation
      JOINT AnkleLeft
      {
        OFFSET 1.915223 -31.518939 5.278894
        CHANNELS 3 Zrotation Xrotation Yrotation
        JOINT FootLeft
        {
          OFFSET -3.396597 -4.861242 -10.748615
          CHANNELS 3 Zrotation Xrotation Yrotation
          End Site
          {
            OFFSET 0 0 0
          }
        }
      }
    }
  }
  JOINT HipRight
  {
    OFFSET 5.975403 0.841160 -6.120427
    CHANNELS 3 Zrotation Xrotation Yrotation
    JOINT KneeRight
    {
      OFFSET 7.347386 -34.498905 3.243657
      CHANNELS 3 Zrotation Xrotation Yrotation
      JOINT AnkleRight
      {
        OFFSET 2.980390 -30.457543 5.145125
        CHANNELS 3 Zrotation Xrotation Yrotation
        JOINT FootRight
        {
          OFFSET -1.342045 -7.734288 -6.390786
          CHANNELS 3 Zrotation Xrotation Yrotation
          End Site
          {
            OFFSET 0 0 0
          }
        }
      }
    }
  }
}
MOTION
Frames: 6
Frame Time: 0.033333
24.114169 76.258094 375.691898 -0.000000 0.000000 24.144337 0.000000 0.000000 -24.144337 -0.000000 0.000000 0.000000 -0.000000 0.000000 0.000000 0.000000 0.000000 0.000000 -0.000000 0.000000 0.000000 -0.000000 0.000000 0.000000 -0.000000 0.000000 0.000000 -0.000000 0.000000 0.000000 0.000000 0.000000 0.000000 0.000000 0.000000 0.000000 -0.000000 0.000000 0.000000 -0.000000 0.000000 0.000000 -0.000000 0.000000 0.000000 -0.000000 0.000000 0.000000 0.000000 0.000000 0.000000 0.000000 0.000000 0.000000 0.000000 0.000000 -24.144337 -0.000000 0.000000 0.000000 -0.000000 0.000000 0.000000 0.000000 0.000000 0.000000 0.000000 0.000000 -24.144337 -0.000000 0.000000 0.000000 -0.000000 0.000000 0.000000 0.000000 0.000000 0.000000
24.202672 76.239103 375.590953 0.021270 0.100497 24.363864 -0.060834 -0.082773 -24.363927 -0.000000 0.000000 0.000000 -0.922143 0.111205 0.017438 0.000000 0.000000 0.000000 0.390250 1.363276 -0.017282 -0.645519 -3.429377 0.046260 -6.618709 -3.300412 1.934405 7.869252 1.376739 -3.203094 0.000000 0.000000 0.000000 0.000000 0.000000 0.000000 -0.749462 -1.318841 -0.286933 4.574603 0.836285 -0.686740 -1.380187 0.620341 0.371919 2.078062 1.589594 0.084801 0.000000 0.000000 0.000000 0.000000 0.000000 0.000000 -0.060834 -0.082773 -24.363927 -0.000000 0.000000 0.000000 2.405994 -5.718212 -1.373539 0.000000 0.000000 0.000000 -0.060834 -0.082773 -24.363927 -0.000000 0.000000 0.000000 -0.000000 0.000000 0.000000 0.000000 0.000000 0.000000
24.273930 76.232601 375.507802 0.030411 0.169662 24.520976 -0.098083 -0.141738 -24.521143 -0.000000 0.000000 0.000000 -1.512150 0.214547 0.038654 0.000000 0.000000 0.000000 0.661677 2.196105 -0.032647 -1.099109 -5.556021 0.066554 -10.930212 -5.643845 3.159316 12.945968 2.146196 -5.704324 0.000000 0.000000 0.000000 0.000000 0.000000 0.000000 -1.244060 -2.180816 -0.484393 7.642777 1.382327 -1.250972 -2.390213 0.983763 0.646221 3.588778 2.891149 -0.012360 0.000000 0.000000 0.000000 0.000000 0.000000 0.000000 0.187952 -1.214335 -24.522402 -1.711699 1.167902 -0.122026 5.571821 -11.403234 -2.191048 0.000000 0.000000 0.000000 -0.098083 -0.141738 -24.521143 -0.000000 0.000000 0.000000 0.519071 0.770904 -0.563474 0.000000 0.000000 0.000000
24.327942 76.238588 375.442444 0.027415 0.207486 24.615348 -0.111347 -0.177211 -24.615570 -0.000000 0.000000 0.000000 -1.780190 0.310994 0.062749 0.000000 0.000000 0.000000 0.830136 2.559425 -0.041096 -1.379581 -6.462450 0.080963 -13.130983 -6.914424 3.792667 15.444538 2.461787 -7.102946 0.000000 0.000000 0.000000 0.000000 0.000000 0.000000 -1.499042 -2.623022 -0.588809 9.213112 1.696437 -1.578968 -2.961500 1.095949 0.820041 4.496190 3.884947 -0.213155 0.000000 0.000000 0.000000 0.000000 0.000000 0.000000 0.225481 -1.487589 -24.617459 -2.107280 1.389890 -0.148397 7.598762 -16.063932 -2.735239 0.000000 0.000000 0.000000 -0.111347 -0.177211 -24.615570 -0.000000 0.000000 0.000000 0.730622 1.093205 -0.794984 0.000000 0.000000 0.000000
24.364708 76.257063 375.394879 0.012266 0.213941 24.646769 -0.100367 -0.189335 -24.646958 -0.000000 0.000000 0.000000 -1.731985 0.401478 0.089013 0.000000 0.000000 0.000000 0.904289 2.481433 -0.040236 -1.496643 -6.188419 0.099567 -13.365166 -7.090137 3.918094 15.518202 2.455705 -7.257144 0.000000 0.000000 0.000000 0.000000 0.000000 0.000000 -1.520929 -2.662256 -0.598214 9.303814 1.809984 -1.618452 -3.067970 0.962801 0.891938 4.773871 4.574044 -0.464124 0.000000 0.000000 0.000000 0.000000 0.000000 0.000000 0.228525 -1.537672 -24.650799 -2.193831 1.369721 -0.160614 8.992358 -19.566011 -2.947212 0.000000 0.000000 0.000000 -0.100367 -0.189335 -24.646958 -0.000000 0.000000 0.000000 0.909821 1.374442 -0.992715 0.000000 0.000000 0.000000
24.384228 76.288028 375.365108 -0.015062 0.188981 24.615140 -0.065022 -0.178081 -24.615216 -0.000000 0.000000 0.000000 -1.368782 0.486871 0.116875 0.000000 0.000000 0.000000 0.886890 1.961683 -0.029405 -1.453612 -4.732495 0.124274 -11.563526 -6.091784 3.550575 13.077665 2.104608 -6.133557 0.000000 0.000000 0.000000 0.000000 0.000000 0.000000 -1.307810 -2.295732 -0.511451 7.923333 1.719690 -1.365614 -2.708521 0.586431 0.859178 4.375112 4.965916 -0.733108 0.000000 0.000000 0.000000 0.000000 0.000000 0.000000 0.197626 -1.364358 -24.622372 -1.971216 1.107584 -0.159711 9.681834 -21.698985 -2.884406 0.000000 0.000000 0.000000 -0.065022 -0.178081 -24.615216 -0.000000 0.000000 0.000000 1.056462 1.615291 -1.156506 0.000000 0.000000 0.000000
